<?xml version="1.0" encoding="UTF-8"?>
<svg width="104px" height="72px" viewBox="0 0 512 512" version="1.1" xmlns="http://www.w3.org/2000/svg" xmlns:xlink="http://www.w3.org/1999/xlink">
    <!-- Generator: Sketch 47.1 (45422) - http://www.bohemiancoding.com/sketch -->
    <title>Logo New</title>
    <desc>Created with Sketch.</desc>
    <defs></defs>
    <g id="Symbols" stroke="none" stroke-width="1" fill="none" fill-rule="evenodd">
        <g id="Logo-New" fill="#007FFF">
            <path d="M5.02739018,320.924031 L0,320.924031 C0.70560215,312.986007 5.38014627,289.657386 14.0237726,250.937468 C22.6673989,212.21755 28.0475346,183.244196 30.1643411,164.016537 C30.1643411,161.194129 29.2382522,157.798469 27.3860465,153.829457 C25.5338409,149.860445 23.6375635,146.641184 21.6971576,144.171576 L19.0511628,140.467183 L19.8449612,136.498191 C29.7233913,133.499382 46.7457879,132 70.9126615,132 C73.2058685,136.233613 74.3524548,142.275241 74.3524548,150.125065 C74.3524548,157.974889 69.9425075,180.068724 61.1224806,216.407235 L62.445478,216.407235 C78.1451259,216.407235 89.3904915,210.453806 96.1819121,198.54677 C102.973333,186.639734 108.044772,166.574474 111.396382,138.350388 C123.920821,134.116775 137.062464,132 150.821705,132 C151.174507,133.234804 151.306805,136.233568 151.218605,140.996382 C151.130404,145.759197 150.204315,151.889024 148.44031,159.386047 C146.676305,166.883069 144.074436,174.776875 140.634625,183.0677 C137.194815,191.358526 132.167475,199.164132 125.552455,206.484755 C118.937435,213.805377 111.308226,219.670607 102.664599,224.08062 C112.895831,259.007927 121.715725,281.763255 129.124548,292.347287 C132.299757,296.7573 134.769328,298.962274 136.533333,298.962274 C139.708543,298.962274 144.647684,297.374693 151.350904,294.199483 L154.526098,292.611886 L160.611886,302.402067 C154.085066,308.399685 146.544057,313.338826 137.98863,317.219638 C129.433204,321.10045 121.363001,323.040827 113.777778,323.040827 C106.192555,323.040827 100.239126,320.042063 95.9173127,314.044444 C91.5954995,308.046826 87.9793427,300.594015 85.0687339,291.685788 C82.158125,282.777561 79.1152614,272.237787 75.9400517,260.06615 C72.764842,247.894513 70.6480673,238.721822 69.5896641,232.547804 C68.0020592,232.724204 63.8567088,232.812403 57.1534884,232.812403 C46.7458567,276.912537 41.5421189,304.518807 41.5421189,315.632041 C34.6624979,319.160052 22.4910434,320.924031 5.02739018,320.924031 Z M219.088372,219.05323 C219.088372,226.462053 216.707001,239.2068 211.944186,257.287855 C207.181372,275.36891 204.8,287.187569 204.8,292.744186 C204.8,298.300803 205.593791,301.07907 207.181395,301.07907 C208.239799,301.07907 212.29695,299.40329 219.352972,296.05168 L222.528165,294.464083 L227.026357,303.725065 C225.438752,305.136269 223.321977,306.900248 220.675969,309.017054 C218.029961,311.133861 213.09082,314.000326 205.858398,317.616537 C198.625976,321.232748 191.922856,323.040827 185.748837,323.040827 C179.574818,323.040827 174.723876,321.14455 171.195866,317.351938 C167.667855,313.559326 165.903876,308.443788 165.903876,302.005168 C165.903876,295.566548 168.10885,284.100685 172.518863,267.607235 C176.928876,251.113785 179.13385,240.397613 179.13385,235.458398 C179.13385,228.049575 176.840678,221.081859 172.254264,214.555039 L169.872868,211.379845 L170.137468,207.940052 C179.486696,205.294044 194.656915,203.971059 215.648579,203.971059 C217.941786,206.617067 219.088372,211.644407 219.088372,219.05323 Z M188.924031,175.129716 C185.39602,171.601705 183.632041,166.927161 183.632041,161.105943 C183.632041,155.284725 186.057512,150.169187 190.908527,145.759173 C195.759542,141.34916 201.360175,139.144186 207.710594,139.144186 C214.061014,139.144186 219.000155,140.908165 222.528165,144.436176 C226.056176,147.964186 227.820155,152.594631 227.820155,158.327649 C227.820155,164.060666 225.306485,169.132105 220.27907,173.542119 C215.251654,177.952132 209.651021,180.157106 203.477003,180.157106 C197.302984,180.157106 192.452042,178.481326 188.924031,175.129716 Z M319.106977,205.823256 C318.754176,210.233269 317.254794,215.348808 314.608786,221.170026 C307.905565,220.464424 301.555241,220.111628 295.557623,220.111628 L290.794832,220.111628 C282.680407,259.448948 278.623256,283.968255 278.623256,293.670284 C278.623256,298.7859 279.725743,301.343669 281.930749,301.343669 C284.135756,301.343669 290.000986,299.138696 299.526615,294.728682 L304.289406,303.460465 C288.589758,316.514105 274.036932,323.040827 260.630491,323.040827 C254.456472,323.040827 249.385033,321.10045 245.416021,317.219638 C241.447009,313.338826 239.462532,308.179188 239.462532,301.740568 C239.462532,295.301949 240.212223,288.025536 241.711628,279.911111 C243.211032,271.796686 245.283708,261.874305 247.929716,250.143669 C250.575724,238.413034 252.516101,228.931647 253.750904,221.699225 C247.224085,222.228426 242.373142,222.75762 239.197933,223.286822 C238.845132,221.170015 238.668734,218.30355 238.668734,214.687339 C238.668734,211.071127 238.933331,208.116463 239.462532,205.823256 L256.1323,205.823256 C257.543504,196.297627 258.249096,187.301334 258.249096,178.834109 L257.984496,170.631525 L257.984496,169.837726 C271.743738,165.074912 284.708983,162.69354 296.88062,162.69354 C297.586222,166.221551 297.939018,170.631498 297.939018,175.923514 C297.939018,181.21553 296.439636,191.182011 293.440827,205.823256 L319.106977,205.823256 Z M401.662016,205.823256 C401.309214,210.233269 399.809832,215.348808 397.163824,221.170026 C390.460604,220.464424 384.11028,220.111628 378.112661,220.111628 L373.349871,220.111628 C365.235446,259.448948 361.178295,283.968255 361.178295,293.670284 C361.178295,298.7859 362.280781,301.343669 364.485788,301.343669 C366.690795,301.343669 372.556025,299.138696 382.081654,294.728682 L386.844444,303.460465 C371.144797,316.514105 356.591971,323.040827 343.18553,323.040827 C337.011511,323.040827 331.940072,321.10045 327.971059,317.219638 C324.002047,313.338826 322.017571,308.179188 322.017571,301.740568 C322.017571,295.301949 322.767262,288.025536 324.266667,279.911111 C325.766071,271.796686 327.838746,261.874305 330.484755,250.143669 C333.130763,238.413034 335.071139,228.931647 336.305943,221.699225 C329.779123,222.228426 324.928181,222.75762 321.752972,223.286822 C321.400171,221.170015 321.223773,218.30355 321.223773,214.687339 C321.223773,211.071127 321.488369,208.116463 322.017571,205.823256 L338.687339,205.823256 C340.098543,196.297627 340.804134,187.301334 340.804134,178.834109 L340.539535,170.631525 L340.539535,169.837726 C354.298777,165.074912 367.264022,162.69354 379.435659,162.69354 C380.141261,166.221551 380.494057,170.631498 380.494057,175.923514 C380.494057,181.21553 378.994675,191.182011 375.995866,205.823256 L401.662016,205.823256 Z M432.884755,348.442377 C427.063537,351.970388 424.152972,355.410147 424.152972,358.761757 C424.152972,362.113367 426.049249,363.789147 429.84186,363.789147 C433.634472,363.789147 437.912121,361.981069 442.674935,358.364858 C447.43775,354.748647 451.406702,348.883417 454.581912,340.768992 C446.114686,342.356597 438.882373,344.914367 432.884755,348.442377 Z M420.183979,320.924031 C405.366334,320.924031 397.957623,312.809728 397.957623,296.580879 C397.957623,292.700067 399.721602,281.498801 403.249612,262.976744 C406.777623,244.454688 408.541602,229.019872 408.541602,216.671835 C408.541602,214.025827 408.188806,211.556256 407.483204,209.263049 C417.008833,205.558638 430.062277,203.70646 446.643928,203.70646 C447.52593,206.176067 447.966925,210.409617 447.966925,216.407235 C447.966925,222.404853 446.026548,234.840905 442.145736,253.715762 C438.264925,272.59062 436.324548,284.762074 436.324548,290.230491 C436.324548,295.698908 438.61772,298.433075 443.204134,298.433075 C448.672551,298.433075 455.287472,295.698908 463.049096,290.230491 C463.931098,279.822859 467.459056,252.392987 473.633075,207.940052 C479.807094,205.470444 490.920161,204.235659 506.97261,204.235659 L512,204.235659 C508.64839,217.465699 505.385029,236.516672 502.209819,261.389147 C499.034609,286.261623 496.47684,303.548616 494.536434,313.250646 C490.832023,332.654705 483.996605,348.486416 474.029974,360.746253 C464.063344,373.006091 451.053999,379.135917 435.00155,379.135917 C428.651131,379.135917 422.8741,377.460137 417.670284,374.108527 C412.466468,370.756917 409.864599,366.435169 409.864599,361.143152 C409.864599,354.087131 414.186348,347.648608 422.829974,341.82739 C431.4736,336.006172 443.115861,331.508026 457.757106,328.332817 C459.344711,320.571193 460.579496,313.074283 461.461499,305.84186 C447.173055,315.896691 433.41402,320.924031 420.183979,320.924031 Z" id="Kitty-Copy-2"></path>
        </g>
    </g>
</svg>